<svg xmlns="http://www.w3.org/2000/svg" version="1.1" xmlns:xlink="http://www.w3.org/1999/xlink" xmlns:svgjs="http://svgjs.dev/svgjs" width="1920" height="1080" preserveAspectRatio="none" viewBox="0 0 1920 1080"><g mask="url(&quot;#SvgjsMask1042&quot;)" fill="none"><rect width="1920" height="1080" x="0" y="0" fill="rgba(212, 212, 224, 1)"></rect><path d="M0 695.76L10 599.85L20 672.82L30 673.22L40 766.3L50 889.08L60 839.82L70 786.84L80 837.81L90 843.46L100 859.12L110 895.51L120 855.12L130 867.01L140 927.84L150 876.56L160 985.81L170 949.27L180 1039.3L190 993.73L200 949.25L210 996.19L220 1001.63L230 1034.58L240 937.35L250 908.77L260 905.41L270 876.43L280 811.63L290 822.85L300 956.81L310 892.25L320 867.56L330 883.35L340 904.53L350 995.67L360 1051.48L370 964.55L380 858.59L390 733.61L400 624.32L410 640.61L420 690.94L430 697.96L440 747.41L450 767.62L460 719.75L470 650.93L480 528.61L490 640.51L500 587.17L510 570.77L520 697.24L530 802.9L540 685.8L550 746.18L560 828.05L570 765.73L580 723.06L590 625.94L600 748.05L610 802.25L620 849.23L630 948.98L640 1066.96L650 1045.43L660 1033.82L670 933.74L680 1010.7L690 1040.25L700 997.47L710 955.3L720 931.99L730 827.33L740 832.65L750 753.68L760 671.01L770 709.92L780 751.21L790 618L800 676.14L810 671.11L820 582.81L830 540.48L840 626.4L850 546.42L860 563.4L870 481.59L880 528.44L890 619.21L900 593.33L910 579.79L920 464.44L930 396.34L940 394.96L950 517.91L960 494.99L970 493.64L980 400.37L990 404.41L1000 372.02L1010 298.27L1020 339.66L1030 264.1L1040 271.32L1050 399.78L1060 496.5L1070 384.35L1080 327.34L1090 318.15L1100 336.58L1110 318.37L1120 341.41L1130 302.21L1140 299.99L1150 256.8L1160 175.06L1170 78.83L1180 116.53L1190 41.13L1200 53.8L1210 175.55L1220 149.18L1230 17.76L1240 73.76L1250 44.39L1260 19.75L1270 53.65L1280 118.45L1290 219.79L1300 130.54L1310 221.95L1320 200.22L1330 129.8L1340 253.89L1350 229.33L1360 363.32L1370 313.64L1380 349.73L1390 248.97L1400 264.91L1410 359.62L1420 486.28L1430 611.29L1440 559L1450 520.63L1460 564.73L1470 556.18L1480 485.58L1490 582.5L1500 696.32L1510 788.66L1520 673.93L1530 663.7L1540 613.8L1550 688.48L1560 693.78L1570 727.39L1580 651.53L1590 674.92L1600 549.91L1610 455.08L1620 474.75L1630 565.54L1640 577.73L1650 579.14L1660 601.55L1670 565.24L1680 687.73L1690 605.37L1700 657.63L1710 756.89L1720 743.56L1730 770.17L1740 725.3L1750 619.88L1760 649.65L1770 551.8L1780 554.67L1790 618.7L1800 673.08L1810 544.65L1820 426.64L1830 547.12L1840 628.59L1850 687.2L1860 590.8L1870 532.21L1880 644.16L1890 697.91L1900 713.45L1910 579.85L1920 685.58" stroke="rgba(65, 105, 225, 1)" stroke-width="2"></path><path d="M0 695.76L10 599.85L20 672.82L30 673.22L40 766.3L50 889.08L60 839.82L70 786.84L80 837.81L90 843.46L100 859.12L110 895.51L120 855.12L130 867.01L140 927.84L150 876.56L160 985.81L170 949.27L180 1039.3L190 993.73L200 949.25L210 996.19L220 1001.63L230 1034.58L240 937.35L250 908.77L260 905.41L270 876.43L280 811.63L290 822.85L300 956.81L310 892.25L320 867.56L330 883.35L340 904.53L350 995.67L360 1051.48L370 964.55L380 858.59L390 733.61L400 624.32L410 640.61L420 690.94L430 697.96L440 747.41L450 767.62L460 719.75L470 650.93L480 528.61L490 640.51L500 587.17L510 570.77L520 697.24L530 802.9L540 685.8L550 746.18L560 828.05L570 765.73L580 723.06L590 625.94L600 748.05L610 802.25L620 849.23L630 948.98L640 1066.96L650 1045.43L660 1033.82L670 933.74L680 1010.7L690 1040.25L700 997.47L710 955.3L720 931.99L730 827.33L740 832.65L750 753.68L760 671.01L770 709.92L780 751.21L790 618L800 676.14L810 671.11L820 582.81L830 540.48L840 626.4L850 546.42L860 563.4L870 481.59L880 528.44L890 619.21L900 593.33L910 579.79L920 464.44L930 396.34L940 394.96L950 517.91L960 494.99L970 493.64L980 400.37L990 404.41L1000 372.02L1010 298.27L1020 339.66L1030 264.1L1040 271.32L1050 399.78L1060 496.5L1070 384.35L1080 327.34L1090 318.15L1100 336.58L1110 318.37L1120 341.41L1130 302.21L1140 299.99L1150 256.8L1160 175.06L1170 78.83L1180 116.53L1190 41.13L1200 53.8L1210 175.55L1220 149.18L1230 17.76L1240 73.76L1250 44.39L1260 19.75L1270 53.65L1280 118.45L1290 219.79L1300 130.54L1310 221.95L1320 200.22L1330 129.8L1340 253.89L1350 229.33L1360 363.32L1370 313.64L1380 349.73L1390 248.97L1400 264.91L1410 359.62L1420 486.28L1430 611.29L1440 559L1450 520.63L1460 564.73L1470 556.18L1480 485.58L1490 582.5L1500 696.32L1510 788.66L1520 673.93L1530 663.7L1540 613.8L1550 688.48L1560 693.78L1570 727.39L1580 651.53L1590 674.92L1600 549.91L1610 455.08L1620 474.75L1630 565.54L1640 577.73L1650 579.14L1660 601.55L1670 565.24L1680 687.73L1690 605.37L1700 657.63L1710 756.89L1720 743.56L1730 770.17L1740 725.3L1750 619.88L1760 649.65L1770 551.8L1780 554.67L1790 618.7L1800 673.08L1810 544.65L1820 426.64L1830 547.12L1840 628.59L1850 687.2L1860 590.8L1870 532.21L1880 644.16L1890 697.91L1900 713.45L1910 579.85L1920 685.58L1920 1080L0 1080z" fill="url(&quot;#SvgjsLinearGradient1043&quot;)"></path></g><defs><mask id="SvgjsMask1042"><rect width="1920" height="1080" fill="#ffffff"></rect></mask><linearGradient x1="50%" y1="0%" x2="50%" y2="100%" id="SvgjsLinearGradient1043"><stop stop-opacity="0.65" stop-color="rgba(65, 105, 225, 1)" offset="0"></stop><stop stop-opacity="0" stop-color="#ffffff" offset="0.8"></stop></linearGradient></defs></svg>