<svg xmlns="http://www.w3.org/2000/svg" version="1.1" xmlns:xlink="http://www.w3.org/1999/xlink" xmlns:svgjs="http://svgjs.dev/svgjs" width="1920" height="1080" preserveAspectRatio="none" viewBox="0 0 1920 1080"><g mask="url(&quot;#SvgjsMask1983&quot;)" fill="none"><rect width="1920" height="1080" x="0" y="0" fill="rgba(212, 212, 224, 1)"></rect><path d="M0 771.17L10 845.7L20 821.5L30 718.78L40 669.13L50 718.41L60 821.4L70 815.42L80 857.98L90 864.48L100 875.58L110 909.6L120 978.73L130 959.38L140 1040.19L150 906.54L160 924.54L170 1054.75L180 1028.11L190 948.17L200 1066.61L210 1074.18L220 975.68L230 1018.24L240 955.87L250 996.19L260 1047.91L270 1021.59L280 938.87L290 999.16L300 1071.49L310 1058.65L320 1007.28L330 941.26L340 845.21L350 731.28L360 636.59L370 705.38L380 608.64L390 619.7L400 512.55L410 417.68L420 346.35L430 476.76L440 609.36L450 602.88L460 615.65L470 709.31L480 813.47L490 696.22L500 659.49L510 697.82L520 637.27L530 566.84L540 677.38L550 688.66L560 818.63L570 795.96L580 882.77L590 760.58L600 831.83L610 892.83L620 859.68L630 978.17L640 916.65L650 932.4L660 939.63L670 926.44L680 982.46L690 912.1L700 805.36L710 793.58L720 778.13L730 727.84L740 774.19L750 783.93L760 662.61L770 599.95L780 584.98L790 567.04L800 678.78L810 642.99L820 615.1L830 496L840 432.86L850 435.39L860 415.97L870 305.84L880 328.59L890 302.69L900 224.78L910 161.25L920 147.23L930 228.84L940 242.25L950 374.59L960 320.81L970 256.53L980 331.16L990 403.71L1000 512.45L1010 621.71L1020 520.46L1030 530.32L1040 575.82L1050 466.69L1060 336.02L1070 463.89L1080 539.46L1090 670.86L1100 677.4L1110 796.91L1120 685.48L1130 709.58L1140 774.79L1150 699.6L1160 817.34L1170 694.66L1180 700.75L1190 573.61L1200 705.3L1210 796.5L1220 751.08L1230 658.71L1240 672.02L1250 706.13L1260 660.81L1270 778.91L1280 895.69L1290 857.58L1300 786.7L1310 799.75L1320 840.57L1330 902.53L1340 793.54L1350 696.07L1360 715.45L1370 765.12L1380 862.88L1390 768.71L1400 789L1410 872.03L1420 828.76L1430 748.47L1440 714.8L1450 633.29L1460 525.86L1470 454.07L1480 348.74L1490 281.93L1500 180.1L1510 292.9L1520 201.33L1530 114.63L1540 171.84L1550 301.04L1560 357.25L1570 293.79L1580 201.31L1590 226.37L1600 323.29L1610 244.43L1620 325.87L1630 438.54L1640 565.24L1650 438.36L1660 324.69L1670 295.39L1680 382.28L1690 468.25L1700 524.79L1710 592.76L1720 469.02L1730 596.39L1740 483.37L1750 502.96L1760 548.62L1770 634.97L1780 722.22L1790 791.01L1800 701.33L1810 747.81L1820 802.11L1830 839.43L1840 883.04L1850 958.56L1860 1000.1L1870 1021.26L1880 1003.69L1890 1023.93L1900 995.22L1910 951.97L1920 842.72" stroke="rgba(65, 105, 225, 1)" stroke-width="2"></path><path d="M0 771.17L10 845.7L20 821.5L30 718.78L40 669.13L50 718.41L60 821.4L70 815.42L80 857.98L90 864.48L100 875.58L110 909.6L120 978.73L130 959.38L140 1040.19L150 906.54L160 924.54L170 1054.75L180 1028.11L190 948.17L200 1066.61L210 1074.18L220 975.68L230 1018.24L240 955.87L250 996.19L260 1047.91L270 1021.59L280 938.87L290 999.16L300 1071.49L310 1058.65L320 1007.28L330 941.26L340 845.21L350 731.28L360 636.59L370 705.38L380 608.64L390 619.7L400 512.55L410 417.68L420 346.35L430 476.76L440 609.36L450 602.88L460 615.65L470 709.31L480 813.47L490 696.22L500 659.49L510 697.82L520 637.27L530 566.84L540 677.38L550 688.66L560 818.63L570 795.96L580 882.77L590 760.58L600 831.83L610 892.83L620 859.68L630 978.17L640 916.65L650 932.4L660 939.63L670 926.44L680 982.46L690 912.1L700 805.36L710 793.58L720 778.13L730 727.84L740 774.19L750 783.93L760 662.61L770 599.95L780 584.98L790 567.04L800 678.78L810 642.99L820 615.1L830 496L840 432.86L850 435.39L860 415.97L870 305.84L880 328.59L890 302.69L900 224.78L910 161.25L920 147.23L930 228.84L940 242.25L950 374.59L960 320.81L970 256.53L980 331.16L990 403.71L1000 512.45L1010 621.71L1020 520.46L1030 530.32L1040 575.82L1050 466.69L1060 336.02L1070 463.89L1080 539.46L1090 670.86L1100 677.4L1110 796.91L1120 685.48L1130 709.58L1140 774.79L1150 699.6L1160 817.34L1170 694.66L1180 700.75L1190 573.61L1200 705.3L1210 796.5L1220 751.08L1230 658.71L1240 672.02L1250 706.13L1260 660.81L1270 778.91L1280 895.69L1290 857.58L1300 786.7L1310 799.75L1320 840.57L1330 902.53L1340 793.54L1350 696.07L1360 715.45L1370 765.12L1380 862.88L1390 768.71L1400 789L1410 872.03L1420 828.76L1430 748.47L1440 714.8L1450 633.29L1460 525.86L1470 454.07L1480 348.74L1490 281.93L1500 180.1L1510 292.9L1520 201.33L1530 114.63L1540 171.84L1550 301.04L1560 357.25L1570 293.79L1580 201.31L1590 226.37L1600 323.29L1610 244.43L1620 325.87L1630 438.54L1640 565.24L1650 438.36L1660 324.69L1670 295.39L1680 382.28L1690 468.25L1700 524.79L1710 592.76L1720 469.02L1730 596.39L1740 483.37L1750 502.96L1760 548.62L1770 634.97L1780 722.22L1790 791.01L1800 701.33L1810 747.81L1820 802.11L1830 839.43L1840 883.04L1850 958.56L1860 1000.1L1870 1021.26L1880 1003.69L1890 1023.93L1900 995.22L1910 951.97L1920 842.72L1920 1080L0 1080z" fill="url(&quot;#SvgjsLinearGradient1984&quot;)"></path></g><defs><mask id="SvgjsMask1983"><rect width="1920" height="1080" fill="#ffffff"></rect></mask><linearGradient x1="50%" y1="0%" x2="50%" y2="100%" id="SvgjsLinearGradient1984"><stop stop-opacity="0.65" stop-color="rgba(65, 105, 225, 1)" offset="0"></stop><stop stop-opacity="0" stop-color="#ffffff" offset="0.8"></stop></linearGradient></defs></svg>