<svg xmlns="http://www.w3.org/2000/svg" version="1.1" xmlns:xlink="http://www.w3.org/1999/xlink" xmlns:svgjs="http://svgjs.dev/svgjs" width="768" height="1024" preserveAspectRatio="none" viewBox="0 0 768 1024"><g mask="url(&quot;#SvgjsMask2115&quot;)" fill="none"><rect width="768" height="1024" x="0" y="0" fill="rgba(212, 212, 224, 1)"></rect><path d="M0 86.62L10 161.7L20 172.83L30 263.46L40 268.43L50 267.41L60 256.41L70 146.2L80 170.14L90 156.41L100 204.11L110 195.7L120 161.77L130 265.41L140 374.99L150 324.07L160 405.72L170 319.78L180 393.09L190 405.71L200 322.99L210 373.4L220 312.61L230 323.5L240 450.88L250 501.85L260 455.85L270 549.31L280 567.88L290 574.41L300 675.06L310 555.99L320 491.27L330 516.35L340 421.66L350 409.04L360 289.47L370 367.49L380 359.38L390 352.07L400 371.62L410 402.53L420 403.22L430 402.17L440 428.99L450 356.45L460 263.17L470 288.38L480 260.9L490 227.98L500 205.85L510 218.26L520 124.98L530 68.06L540 93.29L550 120.89L560 191.56L570 190.72L580 269.71L590 285.02L600 167.78L610 138.64L620 39.74L630 113.78L640 86.04L650 173.95L660 253.47L670 225.64L680 256.55L690 190.03L700 308.21L710 210.27L720 267.92L730 311.7L740 304.75L750 181.12L760 241.97L770 336.65" stroke="rgba(65, 105, 225, 1)" stroke-width="2"></path><path d="M0 86.62L10 161.7L20 172.83L30 263.46L40 268.43L50 267.41L60 256.41L70 146.2L80 170.14L90 156.41L100 204.11L110 195.7L120 161.77L130 265.41L140 374.99L150 324.07L160 405.72L170 319.78L180 393.09L190 405.71L200 322.99L210 373.4L220 312.61L230 323.5L240 450.88L250 501.85L260 455.85L270 549.31L280 567.88L290 574.41L300 675.06L310 555.99L320 491.27L330 516.35L340 421.66L350 409.04L360 289.47L370 367.49L380 359.38L390 352.07L400 371.62L410 402.53L420 403.22L430 402.17L440 428.99L450 356.45L460 263.17L470 288.38L480 260.9L490 227.98L500 205.85L510 218.26L520 124.98L530 68.06L540 93.29L550 120.89L560 191.56L570 190.72L580 269.71L590 285.02L600 167.78L610 138.64L620 39.74L630 113.78L640 86.04L650 173.95L660 253.47L670 225.64L680 256.55L690 190.03L700 308.21L710 210.27L720 267.92L730 311.7L740 304.75L750 181.12L760 241.97L770 336.65L770 1024L0 1024z" fill="url(&quot;#SvgjsLinearGradient2116&quot;)"></path></g><defs><mask id="SvgjsMask2115"><rect width="768" height="1024" fill="#ffffff"></rect></mask><linearGradient x1="50%" y1="0%" x2="50%" y2="100%" id="SvgjsLinearGradient2116"><stop stop-opacity="0.65" stop-color="rgba(65, 105, 225, 1)" offset="0"></stop><stop stop-opacity="0" stop-color="#ffffff" offset="0.8"></stop></linearGradient></defs></svg>