<svg xmlns="http://www.w3.org/2000/svg" version="1.1" xmlns:xlink="http://www.w3.org/1999/xlink" xmlns:svgjs="http://svgjs.dev/svgjs" width="768" height="1024" preserveAspectRatio="none" viewBox="0 0 768 1024"><g mask="url(&quot;#SvgjsMask1599&quot;)" fill="none"><rect width="768" height="1024" x="0" y="0" fill="rgba(212, 212, 224, 1)"></rect><path d="M0 808.13L10 740.2L20 778.02L30 770.34L40 666.19L50 617.86L60 681.89L70 805.99L80 783.39L90 783.94L100 894.96L110 871.98L120 770.95L130 647.78L140 671.31L150 793.55L160 754.05L170 774.65L180 732.75L190 715.05L200 697.34L210 680.61L220 637.77L230 575.35L240 677.6L250 755.67L260 734.21L270 785.23L280 870.57L290 812.84L300 833.94L310 894.11L320 979.71L330 1014.61L340 993.37L350 1020.36L360 959.38L370 877.9L380 833.09L390 719.47L400 697.15L410 731.04L420 645.72L430 674.85L440 654.26L450 666L460 638.97L470 560.01L480 596.26L490 518.93L500 503.44L510 625.89L520 672.76L530 621.15L540 729.19L550 777.84L560 692.65L570 708.89L580 623.39L590 635.46L600 692.56L610 731.52L620 823.68L630 811.91L640 736.55L650 784.91L660 795.33L670 835.2L680 724.15L690 830.89L700 726.43L710 780.96L720 821.43L730 734.36L740 668.02L750 640.65L760 527.78L770 438.75" stroke="rgba(65, 105, 225, 1)" stroke-width="2"></path><path d="M0 808.13L10 740.2L20 778.02L30 770.34L40 666.19L50 617.86L60 681.89L70 805.99L80 783.39L90 783.94L100 894.96L110 871.98L120 770.95L130 647.78L140 671.31L150 793.55L160 754.05L170 774.65L180 732.75L190 715.05L200 697.34L210 680.61L220 637.77L230 575.35L240 677.6L250 755.67L260 734.21L270 785.23L280 870.57L290 812.84L300 833.94L310 894.11L320 979.71L330 1014.61L340 993.37L350 1020.36L360 959.38L370 877.9L380 833.09L390 719.47L400 697.15L410 731.04L420 645.72L430 674.85L440 654.26L450 666L460 638.97L470 560.01L480 596.26L490 518.93L500 503.44L510 625.89L520 672.76L530 621.15L540 729.19L550 777.84L560 692.65L570 708.89L580 623.39L590 635.46L600 692.56L610 731.52L620 823.68L630 811.91L640 736.55L650 784.91L660 795.33L670 835.2L680 724.15L690 830.89L700 726.43L710 780.96L720 821.43L730 734.36L740 668.02L750 640.65L760 527.78L770 438.75L770 1024L0 1024z" fill="url(&quot;#SvgjsLinearGradient1600&quot;)"></path></g><defs><mask id="SvgjsMask1599"><rect width="768" height="1024" fill="#ffffff"></rect></mask><linearGradient x1="50%" y1="0%" x2="50%" y2="100%" id="SvgjsLinearGradient1600"><stop stop-opacity="0.65" stop-color="rgba(65, 105, 225, 1)" offset="0"></stop><stop stop-opacity="0" stop-color="#ffffff" offset="0.8"></stop></linearGradient></defs></svg>